<svg xmlns="http://www.w3.org/2000/svg" viewBox="0 0 1299 935" xml:space="preserve"><path fill="#FEFEFE" d="M838 936H1V1h1299v935H838m-410-24 14 1 161 8c47 1 93 0 140-1a1990 1990 0 0 0 180-12 2855 2855 0 0 0 258-37c17-4 31-14 37-32l14-40a1079 1079 0 0 0 5-650l-18-52c-7-21-21-32-41-36l-165-26a2688 2688 0 0 0-453-22 2489 2489 0 0 0-273 22 4216 4216 0 0 0-165 27c-18 4-31 15-37 33l-10 27a1075 1075 0 0 0-32 571c10 48 24 95 40 141 8 22 23 35 45 38a3204 3204 0 0 0 210 31l90 9z"/><path d="m428 912-90-9a3265 3265 0 0 1-210-31c-22-3-37-16-45-38a1104 1104 0 0 1-8-712l10-27c6-18 19-29 37-33 21-5 43-8 65-12a4216 4216 0 0 1 268-31 2489 2489 0 0 1 406 1 2688 2688 0 0 1 317 41c20 4 34 15 41 36l18 52a1088 1088 0 0 1-5 650l-14 40c-6 18-20 28-37 32-21 5-43 8-65 12a3735 3735 0 0 1-284 32l-89 5c-47 1-93 2-140 1l-161-8-14-1m168-259v11a56 56 0 0 0 111-4V522h141c38-1 63-40 50-74-9-24-28-37-54-37H707V271c0-34-31-59-64-54-28 4-47 27-47 55v139H454a55 55 0 0 0 3 111h139v131z"/><path fill="#FFF" d="M596 653V522H457c-28 0-51-20-55-47-5-32 19-62 52-64h142V272c0-28 19-51 47-55 33-5 64 20 64 54v140h137c26 0 45 13 54 37 13 34-12 73-50 74H707v138c0 30-20 52-49 56-31 5-61-20-62-52v-11z"/></svg>